<?xml version="1.0" standalone="no"?><!DOCTYPE svg PUBLIC "-//W3C//DTD SVG 1.1//EN" "http://www.w3.org/Graphics/SVG/1.1/DTD/svg11.dtd"><svg t="1610209541553" class="icon" viewBox="0 0 1024 1024" version="1.1" xmlns="http://www.w3.org/2000/svg" p-id="3577" xmlns:xlink="http://www.w3.org/1999/xlink" width="200" height="200"><defs><style type="text/css"></style></defs><path d="M914.23744 216.27904c0 75.74528-61.39904 137.14432-137.14432 137.14432H685.6704c-42.88512 0-80.68096-20.09088-105.8304-50.92352-41.60512 12.58496-91.68896 12.4416-153.21088-10.02496 68.4544 5.74464 94.43328 2.26304 130.65216-29.37856-5.35552-14.67392-8.74496-30.30016-8.74496-46.81728 0-75.74528 61.39904-137.14432 137.14432-137.14432h91.42272c75.73504 0 137.13408 61.39904 137.13408 137.14432zM304.72192 109.60896a91.42272 91.42272 0 1 1 0 182.85568 91.42272 91.42272 0 0 1 0-182.85568z m60.94848 213.32992a538.4704 538.4704 0 0 1-36.608 133.41696c0.95232-52.31616-9.10336-102.94272-9.10336-102.94272s15.23712-16.15872 15.23712-30.47424h-60.94848c0 14.31552 15.23712 30.47424 15.23712 30.47424s-10.0864 50.71872-9.10336 103.09632a540.08832 540.08832 0 0 1-36.608-133.57056c-30.47424 0-121.89696 0-121.89696 91.42272V536.2688c0 91.42272 60.94848 91.42272 60.94848 91.42272v274.2784a60.94848 60.94848 0 0 0 121.89696 0 60.94848 60.94848 0 0 0 121.89696 0V627.69152s60.94848 0 60.94848-91.42272V414.3616c0.01024-91.42272-91.41248-91.42272-121.89696-91.42272z m441.89696-152.3712h-152.3712c-8.42752 0-15.23712 6.8096-15.23712 15.23712s6.8096 15.23712 15.23712 15.23712h152.38144a15.22688 15.22688 0 1 0-0.01024-30.47424z m0 60.94848h-152.3712c-8.42752 0-15.23712 6.8096-15.23712 15.23712s6.8096 15.23712 15.23712 15.23712h152.38144a15.23712 15.23712 0 1 0-0.01024-30.47424z" fill="#007c89" p-id="3578"></path></svg>